<svg xmlns="http://www.w3.org/2000/svg" xmlns:xlink="http://www.w3.org/1999/xlink">
    <symbol viewBox="0 0 24 24" id="arrow">
        <path d="M18.682 13.188L7.82 23.508a1.835 1.835 0 01-2.502 0 1.622 1.622 0 010-2.377L14.93 12 5.32 2.87a1.622 1.622 0 010-2.378 1.835 1.835 0 012.501 0l10.862 10.32c.346.328.518.758.518 1.188 0 .43-.173.86-.518 1.188z"/>
        </symbol>
        <symbol viewBox="0 0 24 24" id="check"><path d="M22.678 3.876a1.065 1.065 0 00-1.556 0L7.944 17.68l-5.066-5.306a1.065 1.065 0 00-1.556 0c-.43.45-.43 1.18 0 1.63l5.844 6.12c.43.45 1.126.45 1.555 0L22.678 5.505c.43-.45.43-1.18 0-1.63z"/></symbol><symbol viewBox="0 0 24 24" id="close"><path d="M14.034 12l9.044-9.044A1.437 1.437 0 1021.045.922L12 9.966 2.955.922A1.438 1.438 0 10.921 2.956L9.966 12 .921 21.045a1.437 1.437 0 102.034 2.033L12 14.034l9.045 9.044a1.434 1.434 0 002.033 0 1.437 1.437 0 000-2.034L14.034 12z"/></symbol><symbol viewBox="0 0 24 24" id="instagram"><path d="M12 1c-2.987 0-3.362.013-4.535.066-1.171.054-1.97.24-2.67.512a5.392 5.392 0 00-1.949 1.268 5.392 5.392 0 00-1.269 1.949c-.271.7-.457 1.499-.51 2.67C1.012 8.638 1 9.013 1 12s.013 3.362.066 4.535c.054 1.171.24 1.97.511 2.67a5.392 5.392 0 001.27 1.949 5.392 5.392 0 001.948 1.268c.7.272 1.499.458 2.67.512C8.638 22.987 9.013 23 12 23s3.362-.013 4.535-.066c1.171-.054 1.97-.24 2.67-.512a5.392 5.392 0 001.949-1.268 5.392 5.392 0 001.268-1.949c.272-.7.458-1.499.512-2.67.053-1.173.066-1.548.066-4.535s-.013-3.362-.066-4.535c-.054-1.171-.24-1.97-.512-2.67a5.392 5.392 0 00-1.268-1.949 5.392 5.392 0 00-1.949-1.268c-.7-.272-1.499-.458-2.67-.512C15.362 1.013 14.987 1 12 1zm0 1.982c2.937 0 3.285.011 4.445.064 1.072.05 1.655.228 2.043.379.513.2.88.438 1.264.823.385.385.624.751.823 1.265.15.387.33.97.379 2.042.053 1.16.064 1.508.064 4.445 0 2.937-.011 3.285-.064 4.445-.049 1.072-.228 1.655-.379 2.043-.2.513-.438.88-.823 1.264a3.408 3.408 0 01-1.264.823c-.388.15-.97.33-2.043.379-1.16.053-1.508.064-4.445.064-2.937 0-3.285-.011-4.445-.064-1.072-.049-1.655-.228-2.042-.379a3.41 3.41 0 01-1.265-.823 3.408 3.408 0 01-.823-1.264c-.15-.388-.33-.97-.379-2.043-.053-1.16-.064-1.508-.064-4.445 0-2.937.011-3.285.064-4.445.049-1.072.228-1.655.379-2.042.2-.514.438-.88.823-1.265a3.409 3.409 0 011.265-.823c.387-.15.97-.33 2.042-.379 1.16-.053 1.508-.064 4.445-.064z"/><path d="M12 15.665a3.667 3.667 0 110-7.333 3.667 3.667 0 010 7.333zm0-9.315a5.649 5.649 0 100 11.297A5.649 5.649 0 0012 6.35zm7.192-.216a1.32 1.32 0 11-2.64 0 1.32 1.32 0 012.64 0z"/></symbol>
        
        <symbol viewBox="0 0 224 81" id="logo">
            
           <polygon class="preloader__logo-path" points="0 60.47 0 26.47 19.36 26.47 19.36 32.16 6.53 32.16 6.53 40.38 18.45 40.38 18.45 46.01 6.53 46.01 6.53 54.84 19.85 54.84 19.85 60.47 0 60.47"/>
  <polygon class="preloader__logo-path" points="30.26 60.47 30.26 46.01 43.87 46.01 43.87 40.32 30.26 40.32 30.26 32.16 44.91 32.16 44.91 26.47 22.94 26.47 22.94 60.47 30.26 60.47"/>
  <polygon class="preloader__logo-path" points="56.2 60.47 56.2 46.01 69.88 46.01 69.88 40.32 56.2 40.32 56.2 32.16 70.91 32.16 70.91 26.47 48.94 26.47 48.94 60.47 56.2 60.47"/>
  <polygon class="preloader__logo-path" points="75 60.47 94.85 60.47 94.85 54.84 81.59 54.84 81.59 46.01 93.51 46.01 93.51 40.38 81.59 40.38 81.59 32.16 94.42 32.16 94.42 26.47 75 26.47 75 60.47"/>
  <path class="preloader__logo-path" d="M335.3,175.84a34.9,34.9,0,0,0-10-1.39c-11.55,0-18.63,6.54-18.63,18.15s7.62,17,18.63,17a43.37,43.37,0,0,0,11-1.76V189.52H322.59v5.38h7.2v8.84a18.17,18.17,0,0,1-4.48.48c-7.26,0-11.55-5.2-11.55-12.1s4.42-12.28,12.34-12.28a22.51,22.51,0,0,1,8.78,1.75Z" transform="translate(-209.58 -148.56)"/>
  <rect class="preloader__logo-path" x="130.26" y="26.47" width="7.32" height="34.01"/>
  <path class="preloader__logo-path-1" d="M346.43,161.56a26.53,26.53,0,0,1,9.33-7.51c2.3-1.39,4.93-2.61,4.93-2.61-.32,3.47-.55,7.62-4.08,12.36s-11,6.73-11,6.73c6.55-.67,13.56-3.48,15.11-11.87.92-4.93,1.46-10.1,1.46-10.1-2.08,2.8-5.17,3.24-11.49,6.34-9.87,5.43-7.9,16.6-7.9,16.6a16.71,16.71,0,0,1,3.64-9.94" transform="translate(-209.58 -148.56)" />
  <path class="preloader__logo-path" d="M411,209V175h11.86c4.36,0,10.95,1.27,10.95,8.72,0,4-2.72,6.89-6.78,7.62v.12c4.66.43,7.81,3.52,7.81,7.75,0,8.53-7.68,9.8-12,9.8Zm6.78-28.62v8.35h2.78c2.91,0,6.41-.61,6.41-4.12,0-3.93-3.44-4.23-6.53-4.23Zm0,13.43v9.87H421c3.2,0,7-.79,7-4.72,0-4.49-3.57-5.15-7-5.15ZM375.05,209l13.19-34H396l13.32,34h-7.57l-2.91-7.81H385l-3,7.81ZM397,195.9l-5-14h-.06l-4.9,14ZM354.17,209h20v-5.32H361V175h-6.84Z" transform="translate(-209.58 -148.56)"/>
  <path class="preloader__logo-item" d="M432.93,229.27H364.82v.81h68.11Zm-157.51,0H210.07v.79h65.35Zm72.18-4.64h0l2.72,7.62h-5.54ZM340.08,239h2.24l1.83-4.91h6.91l1.78,4.91h2.4l-6.38-16.32h-2.4Zm-3.89,0h2.17V222.68h-2.17Zm-12.81,0H334.2v-1.83h-8.65V222.68h-2.17Zm-9.24-14.36h.05l2.72,7.62h-5.54ZM306.62,239h2.24l1.83-4.91h6.9l1.79,4.91h2.4l-6.38-16.32H313Zm-7.48,0h2.17V224.5h5.44v-1.82H293.69v1.82h5.45Zm-9.54,0h2.17V222.68H289.6Z" transform="translate(-209.58 -148.56)"/>
  
            
            </symbol>
        
        <symbol viewBox="0 0 204 63" id="logo-text">
            <path class="cls-3" d="M258.8,303.26V278.9h8.54c3.14,0,7.89.91,7.89,6.24,0,2.91-2,4.94-4.88,5.46v.09c3.35.31,5.62,2.52,5.62,5.55,0,6.11-5.53,7-8.63,7Zm4.88-20.5v6h2c2.09,0,4.62-.43,4.62-2.95,0-2.81-2.49-3-4.71-3Zm0,9.62v7.07H266c2.31,0,5.06-.57,5.06-3.38,0-3.22-2.58-3.69-5.06-3.69ZM232.9,303.26l9.5-24.36H248l9.59,24.36h-5.45l-2.1-5.59H240.1L238,303.26Zm15.78-9.4-3.57-10.06h-.05l-3.53,10.06Zm-30.82,9.4h14.43v-3.81h-9.5V278.9h-4.93Z" transform="translate(-115.81 -258.93)"/>
    <path class="cls-3" d="M204.3,279.51a24.9,24.9,0,0,0-7.19-1c-8.33,0-13.43,4.68-13.43,13s5.5,12.17,13.43,12.17a31.57,31.57,0,0,0,7.93-1.25V289.3h-9.89v3.86h5.19v6.33a13.41,13.41,0,0,1-3.23.35c-5.23,0-8.33-3.73-8.33-8.67s3.19-8.8,8.9-8.8a16.41,16.41,0,0,1,6.32,1.25Zm8.59-.61h-5.27v24.36h5.27Zm-44.46,24.36h14.3v-4h-9.55V292.9h8.59v-4h-8.59V283h9.24V278.9h-14Zm-13,0V292.9h9.85v-4.07h-9.85V283h10.59V278.9H150.25v24.36Zm-18.22,0V292.9h9.8v-4.07h-9.8V283h10.55V278.9H132v24.36Zm-21.45,0V278.9h13.95V283h-9.24v5.89h8.58v4h-8.58v6.33h9.59v4Z" transform="translate(-115.81 -258.93)"/>
    <path class="cls-3" d="M211.7,268.24a19.16,19.16,0,0,1,6.72-5.38c1.66-1,3.55-1.87,3.55-1.87-.22,2.48-.39,5.45-2.93,8.85s-7.93,4.82-7.93,4.82c4.72-.48,9.77-2.49,10.89-8.5.66-3.53,1.05-7.23,1.05-7.23-1.5,2-3.73,2.32-8.28,4.54-7.11,3.89-5.69,11.89-5.69,11.89a11.92,11.92,0,0,1,2.62-7.12" transform="translate(-115.81 -258.93)"/>
            
            </symbol>
            
            
            
            
            
            
            
            <symbol viewBox="0 0 204 63" id="logo-trentino">
            
     
     
     
     
     
     
     
    
      <rect class="cls-1" x="-524.32" y="101.73" width="995.28" height="701.43"/>
    

  <polygon class="cls-2" points="72.31 14.99 57.84 14.99 57.84 19.02 63.19 19.02 63.19 37.43 67.36 37.43 67.36 19.02 72.71 19.02 72.71 14.99 72.31 14.99"/>
  <polygon class="cls-2" points="77.18 14.94 73.67 14.94 73.67 34.28 77.55 34.28 77.55 14.94 77.18 14.94"/>
  <g class="cls-3">
    <path class="cls-2" d="M356.77,149v21.69h3.88V158.89c1.17,1.46,11,13.81,11,13.81V149.76h-3.89v12l-11-13.86Z" transform="translate(-314.74 -137.28)"/>
  </g>
  <g class="cls-3">
    <path class="cls-2" d="M393.91,147.36v24.19h3.88V158.47l11,15.29v-23h-3.89v10.8l-11-15.34Z" transform="translate(-314.74 -137.28)"/>
  </g>
  <g class="cls-3">
    <path class="cls-2" d="M412.63,157.34a5.78,5.78,0,1,1,5.77,5.9,5.92,5.92,0,0,1-5.77-5.9m-4.29,0a10.06,10.06,0,1,0,10.06-9.88,9.87,9.87,0,0,0-10.06,9.88" transform="translate(-314.74 -137.28)"/>
  </g>
  <g class="cls-3">
    <path class="cls-2" d="M348.72,141.25l-.06.83.69-.55a15.83,15.83,0,0,1,6.39-2.48l.14,0,1.43-1.56-.44.06-.56.08h0a17.41,17.41,0,0,0-6.34,2,3.52,3.52,0,0,0-2.42-2.28l-.22-.05-1,1.05.53.19a2.65,2.65,0,0,1,1.85,2.73" transform="translate(-314.74 -137.28)"/>
  </g>
  <g class="cls-3">
    <path class="cls-2" d="M348.74,148.08l-.74.07.48.56a2.94,2.94,0,0,1,.84,2.23l0,.18a4.44,4.44,0,0,1-2.37,2.68,4.55,4.55,0,0,1-1.69-2.82,3.86,3.86,0,0,1,0-.9,5.15,5.15,0,0,1,1.2-2.59c4.41-5.46,11.44-5.9,13.28-5.92-1.39,5.42-10.86,6.5-11,6.51m-9.67,2.08a3.59,3.59,0,0,1,3.48-3.28l.95-.12-.76-.57a2.43,2.43,0,0,1-.86-1.74l0-.26c.11-1,.88-2,2.26-3.08a2.74,2.74,0,0,1,1.94,1.36,2.47,2.47,0,0,1,.18,1.35,7.54,7.54,0,0,1-1.23,3,7.8,7.8,0,0,1-6,3.32m22.72-10.06V140h-.36a21.58,21.58,0,0,0-13.75,4.29c0-.14.06-.3.08-.47a3.6,3.6,0,0,0-.34-2.15,4.16,4.16,0,0,0-3.43-1.9l-.16,0-.13.1c-1.87,1.48-2.9,2.93-3.06,4.31l0,.26A2.86,2.86,0,0,0,341,146c-1.14.23-3.18,1.53-3.55,4.64l0,.5v.33l.31.07c.48.11,2.95.51,6.06-1.55-.34,4.2,2.5,5.58,2.83,5.73l.1.05.07,0,.16-.08c2.27-1.07,3.53-2.26,4-3.74l.15-.7a4.08,4.08,0,0,0-.25-1.94c9.44-1.64,10.78-6.82,11-8.37l0-.62Z" transform="translate(-314.74 -137.28)"/>
  </g>
  <polygon class="cls-2" points="0 7.54 0 11.65 5.53 11.65 5.53 32.94 9.84 32.94 9.84 11.65 15.37 11.65 15.37 7.54 0 7.54"/>
  <g class="cls-3">
    <path class="cls-2" d="M336.33,155.36c2.2,0,3,1.35,3,2.62,0,1.64-1.12,2.62-3,2.62h-4.54v-5.24Zm-8.59-3.92v18.75h4.05v-5.67h3.42l3.71,5.67H344l-4.6-6.65a6.06,6.06,0,0,0,4-5.56c0-3.85-2.79-6.54-6.79-6.54Z" transform="translate(-314.74 -137.28)"/>
  </g>
  <polygon class="cls-2" points="41.07 19.19 28.28 19.19 28.28 37.16 42.09 37.16 42.09 33.41 32.17 33.41 32.17 29.84 39.09 29.84 39.09 26.08 32.17 26.08 32.17 22.95 41.07 22.95 41.07 19.19"/>
  <rect class="cls-2" x="74.34" y="39.05" width="1.5" height="5.97"/>
  <polygon class="cls-2" points="84.03 40.15 84.03 39.05 79.07 39.05 79.07 40.15 80.8 40.15 80.8 45.02 82.31 45.02 82.31 40.15 84.03 40.15"/>
  <g class="cls-3">
    <path class="cls-2" d="M404.33,179.73h-1.28l.43-1.59a9.15,9.15,0,0,0,.18-.91h.06a9.15,9.15,0,0,0,.18.91Zm2.21,2.58-1.68-6h-2.33l-1.67,6h1.55l.43-1.51h1.7l.42,1.51Z" transform="translate(-314.74 -137.28)"/>
  </g>
  <polygon class="cls-2" points="98.84 45.02 98.84 43.9 96.5 43.9 96.5 39.05 94.99 39.05 94.99 45.02 98.84 45.02"/>
  <rect class="cls-2" x="102.07" y="39.05" width="1.5" height="5.97"/>
  <g class="cls-3">
    <path class="cls-2" d="M425,179.73h-1.29l.43-1.59a7,7,0,0,0,.18-.91h.06c.05.3.11.62.18.91Zm2.2,2.58-1.68-6h-2.33l-1.66,6h1.54l.43-1.51h1.7l.42,1.51Z" transform="translate(-314.74 -137.28)"/>
  </g>
     
     
     
     
     
     
     
     
     
     
            
             </symbol>
            
            
            
            
            
            
            
            
            
            
            
            
            
            
            
            
            
            
            
        
        
        <symbol viewBox="0 0 22 22" id="long-arrow"><g clip-path="url(#gclip0)"><path d="M11.254 5.335a1.112 1.112 0 010-1.587 1.14 1.14 0 011.587 0l6.651 6.65c.206.206.333.492.333.809 0 .317-.127.603-.333.81l-6.65 6.65a1.112 1.112 0 01-1.588 0 1.112 1.112 0 010-1.587l4.762-4.746H-.889a1.116 1.116 0 01-1.11-1.126c0-.619.491-1.111 1.11-1.111h16.904l-4.76-4.762z"/></g><defs><clipPath id="gclip0"><path transform="rotate(-90 11 11)" d="M0 0h22v22H0z"/></clipPath></defs></symbol><symbol viewBox="0 0 24 24" id="telegram"><path d="M21.72 4.604L18.466 19.95c-.246 1.083-.886 1.352-1.796.842l-4.958-3.653-2.392 2.3c-.264.265-.486.487-.996.487l.356-5.05 9.189-8.303c.4-.356-.087-.554-.621-.197l-11.36 7.152-4.89-1.53c-1.064-.332-1.083-1.064.221-1.574l19.129-7.37c.886-.332 1.66.198 1.372 1.55z"/></symbol></svg>